<?xml version="1.0" encoding="UTF-8"?>
<svg version="1.1" xmlns="http://www.w3.org/2000/svg" width="512" height="512">
<path d="M0 0 C20.07689214 15.74505624 34.79952575 37.55680463 38.0234375 63.37109375 C38.07292721 65.47473637 38.08765442 67.57944053 38.0703125 69.68359375 C38.06354492 70.75222656 38.05677734 71.82085937 38.04980469 72.921875 C38.03675293 74.13423828 38.03675293 74.13423828 38.0234375 75.37109375 C37.47077713 75.37695999 36.91811676 75.38282623 36.34870911 75.38887024 C30.58947803 75.45287197 24.83080224 75.53730891 19.07202148 75.63354492 C16.92365852 75.66677121 14.77520875 75.69481028 12.62670898 75.7175293 C9.53591974 75.75111706 6.44592438 75.80343596 3.35546875 75.859375 C2.39695511 75.86576492 1.43844147 75.87215485 0.45088196 75.8787384 C-4.46012886 75.98668206 -8.02918358 76.09983257 -11.9765625 79.37109375 C-13.32166253 82.06129381 -13.03913603 83.16411975 -12.1640625 86.05859375 C-11.19384385 88.5088546 -11.19384385 88.5088546 -8.9765625 89.37109375 C-7.4657868 89.48914552 -5.95017419 89.54805824 -4.43505859 89.57641602 C-3.48107178 89.5965979 -2.52708496 89.61677979 -1.54418945 89.63757324 C-0.53960693 89.65404907 0.46497559 89.6705249 1.5 89.6875 C2.42192139 89.70615112 3.34384277 89.72480225 4.29370117 89.74401855 C7.74518031 89.8124362 11.19682081 89.87250824 14.6484375 89.93359375 C22.3621875 90.07796875 30.0759375 90.22234375 38.0234375 90.37109375 C38.0234375 107.53109375 38.0234375 124.69109375 38.0234375 142.37109375 C14.7109375 142.80859375 14.7109375 142.80859375 7.3581543 142.93920898 C5.43798086 142.9773299 3.51781429 143.01579886 1.59765625 143.0546875 C0.09845642 143.07940125 0.09845642 143.07940125 -1.43103027 143.10461426 C-2.38489624 143.12479614 -3.33876221 143.14497803 -4.3215332 143.16577148 C-5.14982132 143.18131577 -5.97810944 143.19686005 -6.83149719 143.21287537 C-9.16209497 143.29650098 -9.16209497 143.29650098 -11.9765625 144.37109375 C-12.89773311 147.9720334 -13.26296624 149.75737146 -11.6640625 153.18359375 C-10.16077662 155.46025001 -10.16077662 155.46025001 -7.9765625 156.37109375 C-6.49643426 156.48896066 -5.01139784 156.54802313 -3.52685547 156.57641602 C-2.59317139 156.5965979 -1.6594873 156.61677979 -0.69750977 156.63757324 C0.28548096 156.65404907 1.26847168 156.6705249 2.28125 156.6875 C3.63464478 156.71547668 3.63464478 156.71547668 5.01538086 156.74401855 C8.39296469 156.81243141 11.77071324 156.87250652 15.1484375 156.93359375 C26.4715625 157.15015625 26.4715625 157.15015625 38.0234375 157.37109375 C38.0234375 174.20109375 38.0234375 191.03109375 38.0234375 208.37109375 C15.8359375 208.68359375 15.8359375 208.68359375 8.85473633 208.7590332 C7.02162648 208.79132878 5.18853519 208.82470331 3.35546875 208.859375 C1.93639221 208.86874084 1.93639221 208.86874084 0.48864746 208.8782959 C-4.43601571 208.98584976 -8.0179577 209.09052949 -11.9765625 212.37109375 C-13.32166253 215.06129381 -13.03913603 216.16411975 -12.1640625 219.05859375 C-11.19384385 221.5088546 -11.19384385 221.5088546 -8.9765625 222.37109375 C-7.4657868 222.48914552 -5.95017419 222.54805824 -4.43505859 222.57641602 C-3.49423431 222.59636124 -2.55341003 222.61630646 -1.58407593 222.63685608 C-0.56633087 222.65356857 0.45141418 222.67028107 1.5 222.6875 C3.06057632 222.71867165 3.06057632 222.71867165 4.65267944 222.75047302 C7.98452999 222.81599247 11.316461 222.87486467 14.6484375 222.93359375 C16.90365424 222.97677669 19.15886277 223.0203909 21.4140625 223.06445312 C26.95043514 223.17167627 32.48688828 223.27343821 38.0234375 223.37109375 C38.20378785 230.44260883 38.1114477 237.00745481 36.3359375 243.87109375 C36.15659668 244.59248535 35.97725586 245.31387695 35.79248047 246.05712891 C29.7526003 269.34197969 14.93071014 291.01549624 -5.9765625 303.37109375 C-29.87896962 316.68546629 -56.17336602 321.91614792 -82.9765625 314.37109375 C-107.69265997 307.16109405 -128.46073171 290.90210239 -140.9765625 268.37109375 C-148.65883962 253.93252827 -152.21342676 239.63577286 -151.9765625 223.37109375 C-151.39440475 223.36522751 -150.81224701 223.35936127 -150.21244812 223.35331726 C-144.16157289 223.28945841 -138.11123326 223.20505871 -132.06079102 223.10864258 C-129.80174819 223.07535689 -127.54262147 223.04733642 -125.28344727 223.0246582 C-122.03886102 222.99117949 -118.79504617 222.93886657 -115.55078125 222.8828125 C-114.03190559 222.87322762 -114.03190559 222.87322762 -112.48234558 222.8634491 C-111.54159683 222.84365494 -110.60084808 222.82386078 -109.6315918 222.8034668 C-108.80330368 222.79236374 -107.97501556 222.78126068 -107.12162781 222.76982117 C-104.48939224 222.28053793 -103.62146467 221.44086096 -101.9765625 219.37109375 C-100.97178213 217.51885705 -100.97178213 217.51885705 -100.9765625 215.37109375 C-102.13230261 212.63925676 -102.13230261 212.63925676 -103.9765625 210.37109375 C-106.76428181 209.44185398 -108.55890498 209.22242037 -111.44799805 209.16577148 C-112.36125854 209.1455896 -113.27451904 209.12540771 -114.2154541 209.10461426 C-115.17173706 209.08813843 -116.12802002 209.0716626 -117.11328125 209.0546875 C-118.4356781 209.02671082 -118.4356781 209.02671082 -119.78479004 208.99816895 C-123.07777898 208.92987431 -126.37093276 208.86972363 -129.6640625 208.80859375 C-140.70875 208.59203125 -140.70875 208.59203125 -151.9765625 208.37109375 C-151.9765625 191.54109375 -151.9765625 174.71109375 -151.9765625 157.37109375 C-129.2265625 157.05859375 -129.2265625 157.05859375 -122.05957031 156.9831543 C-120.1829224 156.95086635 -118.30629272 156.91749292 -116.4296875 156.8828125 C-114.97054932 156.87344666 -114.97054932 156.87344666 -113.48193359 156.8638916 C-112.54849121 156.84395142 -111.61504883 156.82401123 -110.65332031 156.8034668 C-109.8450177 156.79236374 -109.03671509 156.78126068 -108.20391846 156.76982117 C-105.44078639 156.27518244 -104.04230034 155.23910196 -101.9765625 153.37109375 C-100.5881623 150.16709329 -101.14566855 147.69466955 -101.9765625 144.37109375 C-104.81618671 143.42455235 -106.68062779 143.22115151 -109.6315918 143.16577148 C-110.58545776 143.1455896 -111.53932373 143.12540771 -112.52209473 143.10461426 C-113.52156128 143.08813843 -114.52102783 143.0716626 -115.55078125 143.0546875 C-116.47169556 143.03603638 -117.39260986 143.01738525 -118.34143066 142.99816895 C-121.78221015 142.92985966 -125.22314788 142.86971834 -128.6640625 142.80859375 C-140.20375 142.59203125 -140.20375 142.59203125 -151.9765625 142.37109375 C-151.9765625 125.21109375 -151.9765625 108.05109375 -151.9765625 90.37109375 C-128.6640625 90.05859375 -128.6640625 90.05859375 -121.3112793 89.9831543 C-119.39109331 89.95087364 -117.47092524 89.91750125 -115.55078125 89.8828125 C-114.5513147 89.8765686 -113.55184814 89.87032471 -112.52209473 89.8638916 C-111.09129578 89.83398132 -111.09129578 89.83398132 -109.6315918 89.8034668 C-108.80330368 89.79236374 -107.97501556 89.78126068 -107.12162781 89.76982117 C-104.48939224 89.28053793 -103.62146467 88.44086096 -101.9765625 86.37109375 C-100.97178213 84.51885705 -100.97178213 84.51885705 -100.9765625 82.37109375 C-102.13230261 79.63925676 -102.13230261 79.63925676 -103.9765625 77.37109375 C-106.76428181 76.44185398 -108.55890498 76.22242037 -111.44799805 76.16577148 C-112.34870529 76.14582626 -113.24941254 76.12588104 -114.17741394 76.10533142 C-115.14625015 76.08861893 -116.11508636 76.07190643 -117.11328125 76.0546875 C-118.10785843 76.0339064 -119.10243561 76.01312531 -120.12715149 75.99171448 C-123.30605117 75.92629963 -126.48503384 75.86737135 -129.6640625 75.80859375 C-131.81836798 75.76540087 -133.97266504 75.72178633 -136.12695312 75.67773438 C-141.41006838 75.57062649 -146.69326629 75.46884502 -151.9765625 75.37109375 C-152.14006552 68.42112545 -152.12557442 61.87975938 -150.4140625 55.12109375 C-150.23770264 54.40856445 -150.06134277 53.69603516 -149.87963867 52.96191406 C-143.54349003 28.87021525 -128.25156998 8.28865052 -106.9765625 -4.62890625 C-73.62250454 -24.06119818 -31.32315908 -22.93164609 0 0 Z " fill="#2392C2" transform="translate(312.9765625,17.62890625)"/>
<path d="M0 0 C7.37475571 7.70997188 8.61558972 15.4221005 9.34423828 25.71582031 C11.43957399 54.24426129 20.65594562 80.14728295 39.75 101.875 C40.43578125 102.70515625 41.1215625 103.5353125 41.828125 104.390625 C61.67124806 127.76141439 91.78015006 141.06579492 121.75 144.875 C158.32649797 147.29476832 191.605964 136.95839563 219.43579102 112.96655273 C242.53528169 92.33060715 258.09694181 61.31864889 260.08203125 30.3671875 C260.20503427 28.18083231 260.30895362 25.99798969 260.37207031 23.80908203 C260.68523516 14.79125754 262.97699882 7.86046921 268.75 0.875 C274.66095766 -4.02983721 281.13103192 -5.78180759 288.75 -5.125 C296.18980925 -3.33996696 302.31282956 -0.67309847 306.5625 5.9375 C316.05406618 21.94107923 308.74841138 49.18324938 304.46484375 66.125 C296.4588497 95.65460332 280.71607896 120.91197492 259.75 142.875 C258.93789063 143.73996094 258.12578125 144.60492188 257.2890625 145.49609375 C242.47429351 160.86222146 224.0356534 172.00566208 204.75 180.875 C203.59628906 181.40867187 202.44257813 181.94234375 201.25390625 182.4921875 C193.42940656 185.85925203 185.49404107 188.15045456 177.25 190.25 C175.70892578 190.64469482 175.70892578 190.64469482 174.13671875 191.04736328 C173.15316406 191.28696777 172.16960937 191.52657227 171.15625 191.7734375 C170.28291016 191.98661621 169.40957031 192.19979492 168.50976562 192.41943359 C165.75 192.875 165.75 192.875 158.75 192.875 C158.75 206.405 158.75 219.935 158.75 233.875 C164.98197266 233.82279297 164.98197266 233.82279297 171.33984375 233.76953125 C174.67356853 233.75020893 178.00727728 233.73395097 181.34102631 233.71974945 C184.84864221 233.70397363 188.35603705 233.68292763 191.86352539 233.64868164 C195.89731871 233.60954795 199.93088156 233.59523538 203.96484375 233.58203125 C205.20894516 233.56654739 206.45304657 233.55106354 207.73484802 233.53511047 C219.18752124 233.53291225 226.22983856 235.49248946 234.578125 243.46484375 C242.34849643 252.08771995 241.97824359 261.79809062 242.0625 272.875 C242.10600586 274.78152344 242.10600586 274.78152344 242.15039062 276.7265625 C242.15876953 277.95117188 242.16714844 279.17578125 242.17578125 280.4375 C242.19765503 282.11005859 242.19765503 282.11005859 242.2199707 283.81640625 C241.61805702 287.73369177 240.63172733 289.15459877 237.75 291.875 C234.80089428 292.37675651 232.42489186 292.55171189 229.4753418 292.50991821 C228.63353457 292.51771817 227.79172735 292.52551812 226.92441082 292.53355443 C224.09890381 292.55352505 221.27473614 292.53769037 218.44921875 292.52197266 C216.42557996 292.52874653 214.40194733 292.53764836 212.37832642 292.54852295 C206.87831687 292.57135012 201.37877538 292.56246569 195.87875748 292.54662752 C190.12838714 292.53398631 184.37805742 292.54570368 178.62768555 292.55355835 C168.97014149 292.56266008 159.3127885 292.55065317 149.65527344 292.52685547 C138.48295754 292.49964332 127.31109783 292.50845711 116.13879299 292.5359875 C106.55397601 292.55866255 96.96929653 292.56188646 87.3844614 292.54879415 C81.65657128 292.54099086 75.92889571 292.53998227 70.20101929 292.55647659 C64.81644668 292.57089865 59.43246336 292.56094074 54.04795456 292.53200531 C52.06942093 292.52538242 50.09083787 292.52731261 48.11232376 292.53831863 C45.41576117 292.55193831 42.72109893 292.53490269 40.0246582 292.50991821 C39.2375027 292.52107182 38.45034719 292.53222543 37.63933849 292.54371703 C33.78843785 292.47427645 32.10654141 292.21256123 29.26419067 289.52152061 C27.43279689 286.32058861 27.24761899 284.28859483 27.25390625 280.61328125 C27.25326172 279.41123047 27.25261719 278.20917969 27.25195312 276.97070312 C27.27193359 275.72224609 27.29191406 274.47378906 27.3125 273.1875 C27.30541016 271.95837891 27.29832031 270.72925781 27.29101562 269.46289062 C27.3730105 257.63670671 29.01268336 249.64675602 37.3359375 241.01171875 C43.36007355 235.679676 49.69902291 233.74454919 57.62011719 233.76147461 C58.80103943 233.76155014 59.98196167 233.76162567 61.19866943 233.76170349 C62.46857727 233.76686478 63.73848511 233.77202606 65.046875 233.77734375 C66.35078186 233.7787587 67.65468872 233.78017365 68.99810791 233.78163147 C72.45703055 233.78544133 75.91591091 233.79525849 79.37481689 233.80633545 C82.90742409 233.81658254 86.44003835 233.82119101 89.97265625 233.82617188 C96.89847479 233.83635091 103.82417735 233.85592644 110.75 233.875 C110.75 220.345 110.75 206.815 110.75 192.875 C106.79 192.545 102.83 192.215 98.75 191.875 C95.33643813 191.11379677 92.0848877 190.31339056 88.75 189.3125 C87.85772705 189.04928955 86.9654541 188.7860791 86.04614258 188.51489258 C58.47336324 180.14341565 33.7998509 166.5115087 13.16845703 146.25830078 C11.86064013 144.98289793 10.52331755 143.73793818 9.18359375 142.49609375 C-20.79577173 114.05659937 -38.71355892 71.30245473 -40.63671875 30.28515625 C-40.68849824 28.14873126 -40.7266953 26.0119253 -40.75 23.875 C-40.76844971 22.89072021 -40.78689941 21.90644043 -40.8059082 20.89233398 C-40.73904314 13.21874086 -38.87330702 7.99460835 -33.9375 2.125 C-23.39495041 -6.70132058 -11.57135588 -7.56588653 0 0 Z " fill="#506BAF" transform="translate(121.25,220.125)"/>
</svg>
